<?xml version="1.0" encoding="utf-8"?>
<!-- Generator: Adobe Illustrator 28.0.0, SVG Export Plug-In . SVG Version: 6.00 Build 0)  -->
<svg version="1.1" id="Calque_2_00000139263483947610135260000009827009938834209408_"
	 xmlns="http://www.w3.org/2000/svg" xmlns:xlink="http://www.w3.org/1999/xlink" x="0px" y="0px" viewBox="0 0 462.8 828.4"
	 style="enable-background:new 0 0 462.8 828.4;" xml:space="preserve">
<g id="Calque_1-2">
	<g>
		<path d="M230.8,250.9v577.5c-0.1,0-0.2,0-0.4,0c-8.1-35.7-16.3-71.3-24.4-107c-5.7-25.2-11.3-50.5-17-75.8
			c-7-31.5-14-62.9-21.1-94.4c-5.3-23.5-10.6-47-15.9-70.5c-7.7-34.5-15.4-69-23.1-103.4c-1.3-5.9-2.8-11.7-3.8-17.6
			c-0.3-1.7,0.3-4.1,1.5-5.3c34.3-34.5,68.8-68.8,103.2-103.2C229.9,251.1,230.1,251.1,230.8,250.9L230.8,250.9z"/>
		<path d="M210.4,229.9H0c35-35,70.3-70.3,105.2-105.2C139.9,159.4,175.4,194.9,210.4,229.9z"/>
		<path d="M462.8,230.9c-35,35-70.1,70.1-104.9,104.9C323.1,301,288.1,265.9,253,230.9H462.8z"/>
		<path d="M336.8,103.9c-34.3,34.3-69.4,69.4-104.6,104.6V0C266.6,34.2,301.9,69.2,336.8,103.9z"/>
	</g>
</g>
</svg>
