<?xml version="1.0" encoding="UTF-8"?>
<svg id="Calque_2" data-name="Calque 2" xmlns="http://www.w3.org/2000/svg" viewBox="0 0 462.8 828.4">
  <defs>
    <style>
      .cls-1 {
        fill: #ff0448;
        stroke-width: 0px;
      }
    </style>
  </defs>
  <g id="Calque_2-2" data-name="Calque 2">
    <g id="Calque_1-2" data-name="Calque 1-2">
      <g>
        <path class="cls-1" d="m230.8,250.9v577.5h-.4c-8.1-35.7-16.3-71.3-24.4-107-5.7-25.2-11.3-50.5-17-75.8-7-31.5-14-62.9-21.1-94.4-5.3-23.5-10.6-47-15.9-70.5-7.7-34.5-15.4-69-23.1-103.4-1.3-5.9-2.8-11.7-3.8-17.6-.3-1.7.3-4.1,1.5-5.3,34.3-34.5,68.8-68.8,103.2-103.2.1-.1.3-.1,1-.3h0Z"/>
        <path class="cls-1" d="m210.4,229.9H0l105.2-105.2,105.2,105.2Z"/>
        <path class="cls-1" d="m462.8,230.9l-104.9,104.9c-34.8-34.8-69.8-69.9-104.9-104.9h209.8Z"/>
        <path class="cls-1" d="m336.8,103.9c-34.3,34.3-69.4,69.4-104.6,104.6V0c34.4,34.2,69.7,69.2,104.6,103.9Z"/>
      </g>
    </g>
  </g>
</svg>